<svg width="25" height="18" viewBox="0 0 25 18" fill="none" xmlns="http://www.w3.org/2000/svg">
<path fill-rule="evenodd" clip-rule="evenodd" d="M6.3219 1.18698C10.301 0.841077 14.3027 0.841077 18.2818 1.18698L20.1899 1.35377C21.0769 1.431 21.9122 1.80456 22.5611 2.41428C23.21 3.024 23.6348 3.83439 23.7671 4.71494C24.3401 8.52643 24.3401 12.4022 23.7671 16.2137C23.7166 16.5473 23.6256 16.8669 23.4992 17.1664C23.4158 17.3648 23.1581 17.3951 23.0115 17.2359L17.4251 11.0898C17.3016 10.9539 17.1412 10.8569 16.9636 10.8104C16.7859 10.764 16.5986 10.7702 16.4244 10.8282L13.2262 11.8947L8.58753 6.67604C8.50172 6.5795 8.3971 6.50152 8.28006 6.44688C8.16303 6.39225 8.03606 6.36211 7.90696 6.35833C7.77786 6.35454 7.64935 6.37718 7.52931 6.42486C7.40928 6.47255 7.30026 6.54426 7.20894 6.6356L0.99963 12.8449C0.957447 12.8883 0.903529 12.9184 0.844486 12.9315C0.785444 12.9447 0.723843 12.9404 0.667235 12.919C0.610627 12.8977 0.561472 12.8603 0.525797 12.8115C0.490122 12.7626 0.469477 12.7044 0.466392 12.644C0.316971 9.9949 0.440613 7.33746 0.835363 4.71367C0.967642 3.83313 1.39245 3.02274 2.04137 2.41302C2.69028 1.8033 3.52554 1.42974 4.4126 1.35251L6.3219 1.18698ZM14.8284 6.67351C14.8284 6.17082 15.0281 5.68872 15.3836 5.33326C15.739 4.97781 16.2211 4.77812 16.7238 4.77812C17.2265 4.77812 17.7086 4.97781 18.0641 5.33326C18.4195 5.68872 18.6192 6.17082 18.6192 6.67351C18.6192 7.1762 18.4195 7.6583 18.0641 8.01376C17.7086 8.36921 17.2265 8.56891 16.7238 8.56891C16.2211 8.56891 15.739 8.36921 15.3836 8.01376C15.0281 7.6583 14.8284 7.1762 14.8284 6.67351Z" fill="#C7C7C7"/>
</svg>
